# xmcd
#
# Track frame offsets:
#	150
#	29486
#	58152
#	82836
#	105329
#	128172
#	152238
#	187134
#	209855
#	235144
#	262623
#
# Disc length: 3774 seconds
#
# Revision: 1
# Processed by: cddbd v1.5.2PL0 Copyright (c) Steve Scherf et al.
# Submitted via: EZCDAudioConverter 8.0.2.1
#
DISCID=930ebc0b
DTITLE=Various Artist - Top Hits 44. Tại Sao Là Không
DYEAR=2010
DGENRE=Contemporary Pop
TTITLE0=Lam Anh, Nguyệt Anh - Giọt mưa thu
TTITLE1=Nguyễn Hưng, Ngọc Anh - Tôi muốn quên người, nửa hồn thương đau
TTITLE2=Minh Tuyết, Bằng Kiều - Xin lỗi anh
TTITLE3=Don Hồ, Thanh Hà - Tại Sao Là Không?
TTITLE4=Ngọc Hạ, Trần Thái Hòa - Ngày đó chúng mình
TTITLE5=Thu Phương, Thế Sơn - LK Lời cuối cho em, Nhìn nhau lần cuối, Yêu em
TTITLE6=Ý Lan, Elvis Phương - LK Trăm nhớ ngàn thương, 10 năm tình cũ, Phải ch
TTITLE6=i em đường có chồng
TTITLE7=Thái Châu, Hương Lan - Chân trời tím
TTITLE8=Duy Quang, Phi Khanh - Giọt lệ cho ngàn sau
TTITLE9=Khánh Ly, Thanh Tuyền - Tiễn đưa, Về mái nhà xưa
TTITLE10=Tuấn Ngọ, Khánh Hà - The Prayer
EXTD=
EXTT0=
EXTT1=
EXTT2=
EXTT3=
EXTT4=
EXTT5=
EXTT6=
EXTT7=
EXTT8=
EXTT9=
EXTT10=
PLAYORDER=
